HIERARCHY
ROOT Hips
{
	OFFSET 0.000000 0.000000 0.000000 
	CHANNELS 6 Xposition Yposition Zposition Zrotation Yrotation Xrotation
	JOINT LeftUpLeg
	{
		OFFSET 1.363060 -1.794630 0.839290 
		CHANNELS 3 Zrotation Yrotation Xrotation
		JOINT LeftLeg
		{
			OFFSET 2.448110 -6.726130 0.000000 
			CHANNELS 3 Zrotation Yrotation Xrotation
			JOINT LeftFoot
			{
				OFFSET 2.562200 -7.039590 0.000000 
				CHANNELS 3 Zrotation Yrotation Xrotation
				JOINT LeftToeBase
				{
					OFFSET 0.157640 -0.433110 2.322550 
					CHANNELS 3 Zrotation Yrotation Xrotation
					End Site
					{
						OFFSET 0.000000 0.000000 0.000000 
					}
				}
			}
		}
	}
	JOINT RightUpLeg
	{
		OFFSET -1.305520 -1.794630 0.839290 
		CHANNELS 3 Zrotation Yrotation Xrotation
		JOINT RightLeg
		{
			OFFSET -2.542530 -6.985550 0.000000 
			CHANNELS 3 Zrotation Yrotation Xrotation
			JOINT RightFoot
			{
				OFFSET -2.568260 -7.056230 0.000000 
				CHANNELS 3 Zrotation Yrotation Xrotation
				JOINT RightToeBase
				{
					OFFSET -0.164730 -0.452590 2.363150 
					CHANNELS 3 Zrotation Yrotation Xrotation
					End Site
					{
						OFFSET 0.000000 0.000000 0.000000 
					}
				}
			}
		}
	}
	JOINT Spine
	{
		OFFSET 0.028270 2.035590 -0.193380 
		CHANNELS 3 Zrotation Yrotation Xrotation
		JOINT Spine1
		{
			OFFSET 0.056720 2.048850 -0.042750 
			CHANNELS 3 Zrotation Yrotation Xrotation
			JOINT Neck1
			{
				OFFSET -0.054170 1.746240 0.172020 
				CHANNELS 3 Zrotation Yrotation Xrotation
				JOINT Head
				{
					OFFSET 0.104070 1.761360 -0.123970 
					CHANNELS 3 Zrotation Yrotation Xrotation
					End Site
					{
						OFFSET 0.000000 0.000000 0.000000 
					}
				}
			}
			JOINT LeftArm
			{
				OFFSET 3.362410 1.200890 -0.311210 
				CHANNELS 3 Zrotation Yrotation Xrotation
				JOINT LeftForeArm
				{
					OFFSET 4.983000 -0.000000 -0.000000 
					CHANNELS 3 Zrotation Yrotation Xrotation
					JOINT LeftHand
					{
						OFFSET 3.483560 -0.000000 -0.000000 
						CHANNELS 3 Zrotation Yrotation Xrotation
						JOINT LeftHandIndex1
						{
							OFFSET 0.715260 -0.000000 -0.000000 
							CHANNELS 3 Zrotation Yrotation Xrotation
							End Site
							{
								OFFSET 0.000000 0.000000 0.000000 
							}
						}
					}
				}
			}
			JOINT RightArm
			{
				OFFSET -3.136600 1.374050 -0.404650 
				CHANNELS 3 Zrotation Yrotation Xrotation
				JOINT RightForeArm
				{
					OFFSET -5.241900 -0.000000 -0.000000 
					CHANNELS 3 Zrotation Yrotation Xrotation
					JOINT RightHand
					{
						OFFSET -3.444170 -0.000000 -0.000000 
						CHANNELS 3 Zrotation Yrotation Xrotation
						JOINT RightHandIndex1
						{
							OFFSET -0.622530 -0.000000 -0.000000 
							CHANNELS 3 Zrotation Yrotation Xrotation
							End Site
							{
								OFFSET 0.000000 0.000000 0.000000 
							}
						}
					}
				}
			}
		}
	}
}
MOTION
Frames: 15
Frame Time: 0.041667
-0.134474 20.139682 4.064577 1.766066 -74.419292 3.884290 -3.713881 20.194891 -32.762850 -0.335559 11.101447 30.378345 10.685161 -14.505164 51.220629 0.382100 -3.969900 -10.992000 12.622914 -25.829178 -33.927699 -8.830272 -15.642372 36.401613 4.112388 -30.516599 42.822479 -11.415500 -18.132500 64.123800 -1.201402 7.001156 -4.486591 0.552767 2.913842 -9.638390 4.286851 17.033848 9.211824 0.071200 8.857200 8.392600 4.948121 -4.941686 27.545628 3.988385 -12.658459 -3.775468 -0.537691 -4.323151 0.421441 -7.125000 0.000000 0.000000 4.576152 -1.229488 57.711233 -127.185403 48.776149 -103.893342 -2.322740 7.398876 -40.291200 7.125000 0.000000 0.000000 
-0.119230 20.094767 4.240836 2.516426 -74.560484 2.907920 -3.771248 20.396744 -32.883277 -0.360586 11.384383 31.373218 10.814046 -17.052693 51.971227 0.367300 -3.892800 -10.775200 11.669340 -24.730157 -32.693230 -9.127074 -15.740174 35.974235 5.955712 -33.994825 40.884538 -11.553600 -18.195500 64.566500 -1.234140 7.106597 -4.457575 0.346695 2.963106 -9.605490 4.350592 16.931203 9.316054 0.107100 8.820700 8.410900 4.927363 -5.045785 27.456129 4.006336 -12.621922 -3.739818 -0.633456 -4.262804 0.686358 -7.125000 0.000000 0.000000 4.795154 -0.812905 58.144553 -126.817983 48.956295 -103.494616 -2.309836 7.317850 -39.298961 7.125000 0.000000 0.000000 
-0.105619 20.052574 4.417639 3.245593 -74.661715 1.938494 -3.679515 20.450642 -32.850287 -0.295318 11.661320 32.197646 10.792584 -18.751952 52.540415 0.373900 -3.927300 -10.872300 10.803168 -23.738637 -31.594961 -9.382776 -15.836712 35.649667 7.669125 -37.031059 39.041423 -11.645600 -18.236800 64.861100 -1.262342 7.186289 -4.430073 0.178410 2.999100 -9.581064 4.421483 16.844211 9.409625 0.146800 8.792300 8.416300 4.907630 -5.133008 27.288665 4.007263 -12.583298 -3.702347 -0.757673 -4.197101 1.011980 -7.125000 0.000000 0.000000 5.010683 -0.388607 58.550257 -126.429512 49.143661 -103.082946 -2.296490 7.236188 -38.362788 7.125000 0.000000 0.000000 
-0.093506 20.014327 4.595804 3.879241 -74.714743 1.050285 -3.425679 20.315520 -32.652606 -0.147791 11.918848 32.874532 10.777298 -19.552946 52.510958 0.442800 -4.269700 -11.836600 10.057458 -22.897521 -30.669726 -9.601715 -15.925853 35.402826 9.258755 -39.683893 37.274500 -11.709100 -18.265000 65.063800 -1.284908 7.235435 -4.404583 0.048378 3.018907 -9.565780 4.497485 16.774937 9.496304 0.193300 8.772000 8.414500 4.887798 -5.198762 27.049729 3.983851 -12.538305 -3.658745 -0.897084 -4.118907 1.407766 -7.125000 0.000000 0.000000 5.222447 0.039944 58.940217 -126.022300 49.337858 -102.653860 -2.285541 7.153987 -37.358113 7.125000 0.000000 0.000000 
-0.082617 19.982206 4.776282 4.372266 -74.728940 0.299849 -3.020885 19.986350 -32.304168 0.084571 12.150266 33.415168 10.871481 -19.390728 51.541602 0.641700 -5.124900 -14.265000 9.431127 -22.210508 -29.910313 -9.793510 -16.009372 35.228554 10.705850 -41.992696 35.618759 -11.736100 -18.276900 65.150000 -1.302707 7.258830 -4.382509 -0.048156 3.024726 -9.554926 4.578553 16.720642 9.577774 0.252700 8.757400 8.410000 4.869157 -5.240910 26.768472 3.940351 -12.487752 -3.611483 -1.028143 -4.035270 1.839850 -7.125000 0.000000 0.000000 5.436342 0.460002 59.302128 -125.580922 49.544298 -102.210754 -2.272403 7.073222 -36.223369 7.125000 0.000000 0.000000 
-0.072681 19.958387 4.959347 4.683548 -74.702305 -0.259150 -2.481777 19.490728 -31.823640 0.453824 12.369333 33.776341 10.956124 -17.950741 49.802226 0.987000 -6.323400 -17.725500 8.906400 -21.648215 -29.291424 -9.948883 -16.087612 35.117836 11.902735 -43.863949 34.222373 -11.736500 -18.277000 65.151200 -1.317331 7.255632 -4.366388 -0.125696 3.014282 -9.549216 4.660796 16.681204 9.654713 0.322900 8.748500 8.404500 4.853075 -5.252794 26.480840 3.889053 -12.436436 -3.568713 -1.136252 -3.951253 2.268086 -7.125000 0.000000 0.000000 5.663081 0.868005 59.652485 -125.122787 49.748150 -101.758548 -2.258299 6.992357 -34.963748 7.125000 0.000000 0.000000 
-0.063834 19.943551 5.145406 4.810687 -74.638370 -0.603839 -1.828684 18.874692 -31.231064 1.001423 12.586139 33.856966 10.687025 -14.888770 47.977964 1.370900 -7.410000 -20.935800 8.454656 -21.163986 -28.781363 -10.067960 -16.161400 35.059368 12.886037 -45.341215 33.033528 -11.708000 -18.264500 65.060300 -1.330182 7.228081 -4.356893 -0.193160 2.987921 -9.538630 4.739235 16.652506 9.728433 0.398700 8.743500 8.401800 4.841764 -5.235004 26.213547 3.836953 -12.387425 -3.533477 -1.208607 -3.873008 2.640322 -7.125000 0.000000 0.000000 5.909520 1.256207 59.990573 -124.666234 49.935115 -101.313114 -2.241300 6.912092 -33.687725 7.125000 0.000000 0.000000 
-0.056893 19.937563 5.334459 4.795916 -74.555093 -0.754315 -1.085897 18.173698 -30.547426 1.668150 12.780582 33.569794 9.820210 -10.445414 46.688927 1.604000 -7.987300 -22.675400 8.044275 -20.717517 -28.352972 -10.152863 -16.229608 35.026720 13.691987 -46.491610 32.022019 -11.660700 -18.243500 64.909100 -1.343636 7.182253 -4.355450 -0.259302 2.948570 -9.523972 4.810554 16.631551 9.795618 0.477200 8.740600 8.398500 4.835175 -5.188688 25.976750 3.787998 -12.341156 -3.506763 -1.243139 -3.818325 2.921162 -7.125000 0.000000 0.000000 6.181847 1.618103 60.335330 -124.244769 50.086417 -100.886844 -2.224756 6.831188 -32.475664 7.125000 0.000000 0.000000 
-0.051585 19.939332 5.526507 4.738965 -74.480584 -0.785571 -0.281459 17.392979 -29.799421 2.320107 12.912168 32.897388 8.500047 -5.433072 46.038773 1.615800 -8.015200 -22.760300 7.639726 -20.278732 -27.985876 -10.210235 -16.289017 34.990201 14.313179 -47.363371 31.234900 -11.607700 -18.219900 64.739900 -1.358357 7.131988 -4.360775 -0.318516 2.906302 -9.491289 4.867873 16.611494 9.855448 0.544400 8.737400 8.396200 4.827730 -5.121688 25.787461 3.744845 -12.299138 -3.487136 -1.255708 -3.789101 3.100452 -7.125000 0.000000 0.000000 6.472970 1.938302 60.683747 -123.888766 50.193079 -100.502546 -2.209440 6.751622 -31.408082 7.125000 0.000000 0.000000 
-0.048318 19.946546 5.721685 4.704346 -74.438467 -0.755624 0.558375 16.534378 -29.015235 2.829979 12.942678 31.883386 7.087968 -0.680430 45.829679 1.452300 -7.617600 -21.558400 7.217580 -19.826273 -27.659596 -10.249465 -16.339244 34.938092 14.757858 -48.005531 30.686005 -11.558400 -18.197700 64.582000 -1.375679 7.088699 -4.372200 -0.375047 2.868678 -9.435206 4.908598 16.587396 9.909693 0.596300 8.731300 8.397800 4.817775 -5.042021 25.642521 3.705072 -12.258798 -3.469523 -1.259666 -3.782495 3.190956 -7.125000 0.000000 0.000000 6.776106 2.208226 61.035884 -123.614864 50.253535 -100.171100 -2.197067 6.675352 -30.495578 7.125000 0.000000 0.000000 
-0.046821 19.956482 5.919993 4.770200 -74.450214 -0.740155 1.407291 15.601574 -28.219211 3.115542 12.847342 30.593176 5.884318 3.285433 45.927676 1.207000 -6.969900 -19.626100 6.762918 -19.346884 -27.360256 -10.281522 -16.380349 34.878368 15.084943 -48.478946 30.294594 -11.510600 -18.176000 64.428800 -1.395584 7.065061 -4.387691 -0.422510 2.844507 -9.347606 4.931488 16.555925 9.959355 0.629700 8.720700 8.406200 4.801260 -4.958027 25.545683 3.666777 -12.219212 -3.449458 -1.275226 -3.780738 3.230341 -7.125000 0.000000 0.000000 7.076187 2.413613 61.381019 -123.429754 50.276928 -99.901072 -2.189369 6.605157 -29.682245 7.125000 0.000000 0.000000 
-0.046549 19.965873 6.121704 4.992917 -74.518527 -0.806627 2.237676 14.615721 -27.432282 3.175003 12.632199 29.098141 4.997014 6.384160 46.281957 0.981500 -6.306400 -17.676000 6.271532 -18.839559 -27.082626 -10.317295 -16.415318 34.828544 15.344985 -48.832394 29.985508 -11.461600 -18.153600 64.271600 -1.417539 7.065521 -4.406091 -0.454913 2.837412 -9.231930 4.935601 16.518383 10.005546 0.644200 8.705700 8.422200 4.775377 -4.871453 25.507792 3.625774 -12.178731 -3.421839 -1.318343 -3.754873 3.279241 -7.125000 0.000000 0.000000 7.354776 2.554223 61.710001 -123.317843 50.279476 -99.688387 -2.186381 6.544064 -28.873250 7.125000 0.000000 0.000000 
-0.047093 19.972542 6.326955 5.422520 -74.649105 -1.022795 3.016237 13.611463 -26.679389 3.032237 12.316308 27.496600 4.455350 8.612506 46.813297 0.852600 -5.888900 -16.462500 5.748227 -18.319753 -26.828448 -10.370195 -16.447937 34.809799 15.583326 -49.116539 29.692052 -11.408300 -18.129200 64.100700 -1.441143 7.096791 -4.425664 -0.472834 2.851361 -9.089225 4.923210 16.470951 10.048894 0.640800 8.684500 8.447400 4.738388 -4.788519 25.548864 3.587846 -12.140452 -3.388947 -1.387612 -3.701162 3.351632 -7.125000 0.000000 0.000000 7.598026 2.623533 62.010456 -123.253977 50.283286 -99.523597 -2.188011 6.493739 -27.973273 7.125000 0.000000 0.000000 
-0.047501 19.972951 6.536016 6.079649 -74.834125 -1.424972 3.718079 12.612294 -25.974718 2.713104 11.921360 25.907950 4.269711 9.923834 47.444698 0.817000 -5.767700 -16.111900 5.209178 -17.810585 -26.601473 -10.453493 -16.483035 34.849150 15.834099 -49.373683 29.362041 -11.355800 -18.104900 63.931800 -1.465260 7.155099 -4.445282 -0.471022 2.886192 -8.926316 4.897060 16.419601 10.093615 0.625900 8.659300 8.485900 4.690488 -4.708918 25.657091 3.548949 -12.103521 -3.349834 -1.473922 -3.608953 3.485287 -7.125000 0.000000 0.000000 7.793296 2.633479 62.274574 -123.208660 50.304962 -99.391777 -2.193175 6.455217 -26.936412 7.125000 0.000000 0.000000 
-0.046957 19.965873 6.748343 6.962356 -75.069485 -2.033805 4.300638 11.687431 -25.349885 2.292612 11.491746 24.443304 4.327994 10.539002 48.051551 0.880200 -5.981000 -16.729400 4.670917 -17.330111 -26.412112 -10.576593 -16.525861 34.966128 16.107059 -49.626925 28.981470 -11.298400 -18.078000 63.746800 -1.489852 7.240810 -4.464417 -0.453059 2.941743 -8.749794 4.862289 16.364258 10.138327 0.606700 8.629700 8.535600 4.634743 -4.634131 25.837526 3.514101 -12.070888 -3.309256 -1.560507 -3.492999 3.652920 -7.125000 0.000000 0.000000 7.932423 2.593119 62.494999 -123.154142 50.357300 -99.281086 -2.200069 6.429158 -25.795558 7.125000 0.000000 0.000000 
